<svg xmlns="http://www.w3.org/2000/svg" viewBox="0 0 1100 320" width="1100" height="320">
  <defs>
    <style>
      .label { font-family: ui-monospace, SFMono-Regular, Menlo, Consolas, monospace; }
      .title { font-family: ui-monospace, SFMono-Regular, Menlo, Consolas, monospace; font-weight: bold; }
      .connector { stroke: #6F95A5; stroke-width: 2; fill: none; }
    </style>
  </defs>

  <!-- Background -->
  <rect width="1100" height="320" fill="#11181C"/>

  <!-- Title -->
  <text x="550" y="40" text-anchor="middle" fill="#D8DEE3" class="title" font-size="24">Core Activation Loop</text>
  <text x="550" y="65" text-anchor="middle" fill="#8A969E" class="label" font-size="15">Activation over memorization</text>

  <!-- Main Flow -->
  <g transform="translate(50, 100)">

    <!-- Source -->
    <g>
      <rect width="120" height="60" rx="8" fill="#172126" stroke="#6F95A5" stroke-width="2"/>
      <text x="60" y="35" text-anchor="middle" fill="#D8DEE3" class="title" font-size="15">Source</text>
    </g>

    <!-- Arrow -->
    <path d="M 130 30 L 160 30" class="connector"/>
    <polygon points="155,26 165 30 155,34" fill="#6F95A5"/>

    <!-- Phrase Extraction -->
    <g transform="translate(170, 0)">
      <rect width="160" height="60" rx="8" fill="#172126" stroke="#B7A27A" stroke-width="2"/>
      <text x="80" y="35" text-anchor="middle" fill="#D8DEE3" class="title" font-size="15">Phrase Extraction</text>
    </g>

    <!-- Arrow -->
    <path d="M 340 30 L 370 30" class="connector"/>
    <polygon points="365,26 375 30 365,34" fill="#6F95A5"/>

    <!-- Voice Drill -->
    <g transform="translate(380, 0)">
      <rect width="130" height="60" rx="8" fill="#172126" stroke="#B7A27A" stroke-width="2"/>
      <text x="65" y="35" text-anchor="middle" fill="#D8DEE3" class="title" font-size="15">Voice Drill</text>
    </g>

    <!-- Arrow -->
    <path d="M 520 30 L 550 30" class="connector"/>
    <polygon points="545,26 555 30 545,34" fill="#6F95A5"/>

    <!-- Spoken Answer -->
    <g transform="translate(560, 0)">
      <rect width="150" height="60" rx="8" fill="#172126" stroke="#8FAE9A" stroke-width="2"/>
      <text x="75" y="35" text-anchor="middle" fill="#D8DEE3" class="title" font-size="15">Spoken Answer</text>
    </g>

    <!-- Arrow -->
    <path d="M 720 30 L 750 30" class="connector"/>
    <polygon points="745,26 755 30 745,34" fill="#6F95A5"/>

    <!-- Scoring -->
    <g transform="translate(760, 0)">
      <rect width="120" height="60" rx="8" fill="#172126" stroke="#B97868" stroke-width="2"/>
      <text x="60" y="35" text-anchor="middle" fill="#D8DEE3" class="title" font-size="15">Scoring</text>
    </g>

    <!-- Feedback Loop -->
    <path d="M 820 60 Q 820 100 450 100 L 110 100 Q 60 100 60 75" class="connector" stroke-dasharray="5,3"/>
    <polygon points="56,72 60,82 68,76" fill="#6F95A5"/>

    <!-- Feedback -->
    <g transform="translate(100, 115)">
      <rect width="120" height="50" rx="8" fill="#172126" stroke="#8FAE9A" stroke-width="2"/>
      <text x="60" y="30" text-anchor="middle" fill="#D8DEE3" class="title" font-size="14">Feedback</text>
    </g>

    <!-- Repetition Loop -->
    <path d="M 230 140 L 230 165 L 445 165" class="connector"/>
    <polygon points="440,161 450 165 440,169" fill="#6F95A5"/>

    <!-- Repetition -->
    <text x="340" y="190" text-anchor="middle" fill="#B7A27A" class="title" font-size="15">Repetition</text>
    <text x="340" y="210" text-anchor="middle" fill="#8A969E" class="label" font-size="13">Weak phrases replayed</text>
  </g>

  <!-- Bottom Info -->
  <text x="550" y="290" text-anchor="middle" fill="#6F95A5" class="label" font-size="12">ChatGPT Voice Mode • Local Scoring • Progress Tracking</text>
</svg>
